<mxfile host="app.diagrams.net" agent="Mozilla/5.0 (Windows NT 10.0; Win64; x64) AppleWebKit/537.36 (KHTML, like Gecko) Chrome/131.0.0.0 Safari/537.36" version="24.7.14">
  <diagram name="Página-1" id="sHzSjyuvcX5NaHY5-Yfv">
    <mxGraphModel dx="1648" dy="900" grid="1" gridSize="10" guides="1" tooltips="1" connect="1" arrows="1" fold="1" page="1" pageScale="1" pageWidth="850" pageHeight="1100" math="0" shadow="0">
      <root>
        <mxCell id="0" />
        <mxCell id="1" parent="0" />
        <mxCell id="5zVKE2AoVs-iyzFynHoH-3" style="edgeStyle=orthogonalEdgeStyle;rounded=0;orthogonalLoop=1;jettySize=auto;html=1;entryX=0;entryY=0.5;entryDx=0;entryDy=0;" edge="1" parent="1" source="5zVKE2AoVs-iyzFynHoH-1" target="5zVKE2AoVs-iyzFynHoH-5">
          <mxGeometry relative="1" as="geometry">
            <mxPoint x="200" y="415" as="targetPoint" />
          </mxGeometry>
        </mxCell>
        <mxCell id="5zVKE2AoVs-iyzFynHoH-1" value="INicio" style="ellipse;whiteSpace=wrap;html=1;aspect=fixed;" vertex="1" parent="1">
          <mxGeometry x="20" y="380" width="70" height="70" as="geometry" />
        </mxCell>
        <mxCell id="5zVKE2AoVs-iyzFynHoH-7" style="edgeStyle=orthogonalEdgeStyle;rounded=0;orthogonalLoop=1;jettySize=auto;html=1;" edge="1" parent="1" source="5zVKE2AoVs-iyzFynHoH-5" target="5zVKE2AoVs-iyzFynHoH-8">
          <mxGeometry relative="1" as="geometry">
            <mxPoint x="580" y="415" as="targetPoint" />
          </mxGeometry>
        </mxCell>
        <mxCell id="5zVKE2AoVs-iyzFynHoH-5" value="Agendamento&amp;nbsp;&lt;div&gt;Conexão&amp;nbsp;&lt;/div&gt;&lt;div&gt;&lt;br&gt;&lt;/div&gt;" style="whiteSpace=wrap;html=1;aspect=fixed;" vertex="1" parent="1">
          <mxGeometry x="240" y="325" width="180" height="180" as="geometry" />
        </mxCell>
        <mxCell id="5zVKE2AoVs-iyzFynHoH-9" style="edgeStyle=orthogonalEdgeStyle;rounded=0;orthogonalLoop=1;jettySize=auto;html=1;" edge="1" parent="1" source="5zVKE2AoVs-iyzFynHoH-8" target="5zVKE2AoVs-iyzFynHoH-10">
          <mxGeometry relative="1" as="geometry">
            <mxPoint x="580" y="220" as="targetPoint" />
          </mxGeometry>
        </mxCell>
        <mxCell id="5zVKE2AoVs-iyzFynHoH-11" style="edgeStyle=orthogonalEdgeStyle;rounded=0;orthogonalLoop=1;jettySize=auto;html=1;" edge="1" parent="1" source="5zVKE2AoVs-iyzFynHoH-8" target="5zVKE2AoVs-iyzFynHoH-12">
          <mxGeometry relative="1" as="geometry">
            <mxPoint x="580" y="640" as="targetPoint" />
          </mxGeometry>
        </mxCell>
        <mxCell id="5zVKE2AoVs-iyzFynHoH-8" value="" style="rhombus;whiteSpace=wrap;html=1;" vertex="1" parent="1">
          <mxGeometry x="540" y="375" width="80" height="80" as="geometry" />
        </mxCell>
        <mxCell id="5zVKE2AoVs-iyzFynHoH-10" value="Agendamento" style="swimlane;whiteSpace=wrap;html=1;" vertex="1" parent="1">
          <mxGeometry x="480" y="120" width="200" height="200" as="geometry" />
        </mxCell>
        <mxCell id="5zVKE2AoVs-iyzFynHoH-13" value="Horários&lt;div&gt;Datas&lt;/div&gt;&lt;div&gt;Horários de medicamentos&lt;/div&gt;" style="text;html=1;align=center;verticalAlign=middle;whiteSpace=wrap;rounded=0;" vertex="1" parent="5zVKE2AoVs-iyzFynHoH-10">
          <mxGeometry y="30" width="200" height="170" as="geometry" />
        </mxCell>
        <mxCell id="5zVKE2AoVs-iyzFynHoH-12" value="não agendamento" style="swimlane;whiteSpace=wrap;html=1;" vertex="1" parent="1">
          <mxGeometry x="480" y="540" width="200" height="200" as="geometry" />
        </mxCell>
        <mxCell id="5zVKE2AoVs-iyzFynHoH-14" value="Regras de prioridade&lt;div&gt;tags&lt;/div&gt;&lt;div&gt;&lt;br&gt;&lt;/div&gt;" style="text;html=1;align=center;verticalAlign=middle;whiteSpace=wrap;rounded=0;" vertex="1" parent="5zVKE2AoVs-iyzFynHoH-12">
          <mxGeometry y="20" width="200" height="180" as="geometry" />
        </mxCell>
      </root>
    </mxGraphModel>
  </diagram>
</mxfile>
